<svg width="126" height="28" viewBox="0 0 126 28" fill="none" xmlns="http://www.w3.org/2000/svg">
<rect x="0.5" width="125" height="28" rx="14" fill="#8E2424" fill-opacity="0.05"/>
<path d="M14.7986 8.81818L17.6324 17.1108H17.7467L20.5805 8.81818H22.241L18.577 19H16.8021L13.1381 8.81818H14.7986ZM25.0624 19.169C24.5785 19.169 24.141 19.0795 23.7499 18.9006C23.3588 18.7183 23.0489 18.4548 22.8202 18.1101C22.5948 17.7654 22.4822 17.3428 22.4822 16.8423C22.4822 16.4115 22.565 16.0568 22.7307 15.7784C22.8965 15.5 23.1202 15.2796 23.4019 15.1172C23.6836 14.9548 23.9985 14.8321 24.3465 14.7493C24.6945 14.6664 25.0492 14.6035 25.4104 14.5604C25.8678 14.5073 26.239 14.4643 26.5241 14.4311C26.8091 14.3946 27.0162 14.3366 27.1455 14.2571C27.2748 14.1776 27.3394 14.0483 27.3394 13.8693V13.8345C27.3394 13.4003 27.2168 13.0639 26.9715 12.8253C26.7296 12.5866 26.3683 12.4673 25.8877 12.4673C25.3872 12.4673 24.9928 12.5784 24.7045 12.8004C24.4194 13.0192 24.2222 13.2628 24.1128 13.5312L22.7158 13.2131C22.8815 12.7491 23.1235 12.3745 23.4417 12.0895C23.7632 11.8011 24.1327 11.5923 24.5503 11.4631C24.968 11.3305 25.4071 11.2642 25.8678 11.2642C26.1727 11.2642 26.4959 11.3007 26.8373 11.3736C27.182 11.4432 27.5035 11.5724 27.8018 11.7614C28.1034 11.9503 28.3503 12.2204 28.5425 12.5717C28.7348 12.9197 28.8309 13.3722 28.8309 13.929V19H27.3792V17.956H27.3195C27.2234 18.1482 27.0792 18.3371 26.887 18.5227C26.6948 18.7083 26.4478 18.8625 26.1462 18.9851C25.8446 19.1077 25.4833 19.169 25.0624 19.169ZM25.3856 17.9759C25.7965 17.9759 26.1479 17.8946 26.4395 17.7322C26.7345 17.5698 26.9582 17.3577 27.1107 17.0959C27.2665 16.8307 27.3444 16.5473 27.3444 16.2457V15.2614C27.2913 15.3144 27.1886 15.3641 27.0361 15.4105C26.887 15.4536 26.7163 15.4917 26.5241 15.5249C26.3318 15.5547 26.1446 15.5829 25.9623 15.6094C25.78 15.6326 25.6275 15.6525 25.5049 15.669C25.2165 15.7055 24.953 15.7668 24.7144 15.853C24.4791 15.9392 24.2902 16.0634 24.1476 16.2259C24.0084 16.3849 23.9388 16.5971 23.9388 16.8622C23.9388 17.2301 24.0747 17.5085 24.3465 17.6974C24.6183 17.883 24.9646 17.9759 25.3856 17.9759ZM34.0125 22.0227C33.406 22.0227 32.884 21.9432 32.4465 21.7841C32.0123 21.625 31.6576 21.4145 31.3825 21.1527C31.1075 20.8909 30.902 20.6042 30.7661 20.2926L32.0438 19.7656C32.1333 19.9115 32.2526 20.0656 32.4017 20.228C32.5542 20.3937 32.7597 20.5346 33.0182 20.6506C33.28 20.7666 33.6164 20.8246 34.0274 20.8246C34.5909 20.8246 35.0566 20.687 35.4244 20.4119C35.7923 20.1402 35.9763 19.706 35.9763 19.1094V17.608H35.8818C35.7923 17.7704 35.6631 17.951 35.4941 18.1499C35.3283 18.3487 35.0996 18.5211 34.808 18.6669C34.5163 18.8127 34.1368 18.8857 33.6695 18.8857C33.0663 18.8857 32.5227 18.7448 32.0388 18.4631C31.5582 18.178 31.1771 17.7588 30.8953 17.2053C30.6169 16.6484 30.4777 15.964 30.4777 15.152C30.4777 14.34 30.6153 13.6439 30.8904 13.0639C31.1688 12.4839 31.5499 12.0398 32.0338 11.7315C32.5177 11.42 33.0663 11.2642 33.6794 11.2642C34.1534 11.2642 34.5362 11.3438 34.8279 11.5028C35.1195 11.6586 35.3466 11.8409 35.509 12.0497C35.6747 12.2585 35.8023 12.4425 35.8918 12.6016H36.0012V11.3636H37.4578V19.169C37.4578 19.8253 37.3054 20.3639 37.0004 20.7848C36.6955 21.2057 36.2829 21.5173 35.7625 21.7195C35.2455 21.9216 34.6621 22.0227 34.0125 22.0227ZM33.9976 17.6527C34.4252 17.6527 34.7864 17.5533 35.0814 17.3544C35.3797 17.1522 35.6051 16.8639 35.7575 16.4893C35.9133 16.1115 35.9912 15.6591 35.9912 15.1321C35.9912 14.6184 35.915 14.166 35.7625 13.7749C35.6101 13.3838 35.3863 13.0788 35.0914 12.8601C34.7964 12.638 34.4318 12.527 33.9976 12.527C33.5502 12.527 33.1773 12.643 32.879 12.875C32.5807 13.1037 32.3553 13.4152 32.2029 13.8097C32.0537 14.2041 31.9791 14.6449 31.9791 15.1321C31.9791 15.6326 32.0554 16.0717 32.2078 16.4496C32.3603 16.8274 32.5857 17.1224 32.884 17.3345C33.1856 17.5466 33.5568 17.6527 33.9976 17.6527ZM41.6737 19.169C41.1898 19.169 40.7523 19.0795 40.3612 18.9006C39.9701 18.7183 39.6602 18.4548 39.4316 18.1101C39.2062 17.7654 39.0935 17.3428 39.0935 16.8423C39.0935 16.4115 39.1763 16.0568 39.3421 15.7784C39.5078 15.5 39.7315 15.2796 40.0132 15.1172C40.295 14.9548 40.6098 14.8321 40.9578 14.7493C41.3058 14.6664 41.6605 14.6035 42.0218 14.5604C42.4791 14.5073 42.8503 14.4643 43.1354 14.4311C43.4204 14.3946 43.6276 14.3366 43.7568 14.2571C43.8861 14.1776 43.9507 14.0483 43.9507 13.8693V13.8345C43.9507 13.4003 43.8281 13.0639 43.5828 12.8253C43.3409 12.5866 42.9796 12.4673 42.499 12.4673C41.9985 12.4673 41.6041 12.5784 41.3158 12.8004C41.0307 13.0192 40.8335 13.2628 40.7242 13.5312L39.3271 13.2131C39.4929 12.7491 39.7348 12.3745 40.053 12.0895C40.3745 11.8011 40.7441 11.5923 41.1617 11.4631C41.5793 11.3305 42.0184 11.2642 42.4791 11.2642C42.7841 11.2642 43.1072 11.3007 43.4486 11.3736C43.7933 11.4432 44.1148 11.5724 44.4131 11.7614C44.7147 11.9503 44.9616 12.2204 45.1539 12.5717C45.3461 12.9197 45.4422 13.3722 45.4422 13.929V19H43.9905V17.956H43.9308C43.8347 18.1482 43.6905 18.3371 43.4983 18.5227C43.3061 18.7083 43.0592 18.8625 42.7575 18.9851C42.4559 19.1077 42.0947 19.169 41.6737 19.169ZM41.9969 17.9759C42.4079 17.9759 42.7592 17.8946 43.0509 17.7322C43.3459 17.5698 43.5696 17.3577 43.722 17.0959C43.8778 16.8307 43.9557 16.5473 43.9557 16.2457V15.2614C43.9027 15.3144 43.7999 15.3641 43.6475 15.4105C43.4983 15.4536 43.3276 15.4917 43.1354 15.5249C42.9432 15.5547 42.7559 15.5829 42.5736 15.6094C42.3913 15.6326 42.2388 15.6525 42.1162 15.669C41.8279 15.7055 41.5644 15.7668 41.3257 15.853C41.0904 15.9392 40.9015 16.0634 40.759 16.2259C40.6198 16.3849 40.5502 16.5971 40.5502 16.8622C40.5502 17.2301 40.686 17.5085 40.9578 17.6974C41.2296 17.883 41.576 17.9759 41.9969 17.9759ZM53.1444 13.228L51.7971 13.4666C51.7408 13.2943 51.6513 13.1302 51.5287 12.9744C51.4094 12.8187 51.247 12.6911 51.0415 12.5916C50.836 12.4922 50.5791 12.4425 50.2709 12.4425C49.8499 12.4425 49.4986 12.5369 49.2169 12.7259C48.9352 12.9115 48.7943 13.1518 48.7943 13.4467C48.7943 13.7019 48.8888 13.9074 49.0777 14.0632C49.2666 14.219 49.5715 14.3466 49.9925 14.446L51.2055 14.7244C51.9082 14.8868 52.4318 15.1371 52.7765 15.4751C53.1212 15.8132 53.2936 16.2524 53.2936 16.7926C53.2936 17.25 53.161 17.6577 52.8959 18.0156C52.634 18.3703 52.2678 18.6487 51.7971 18.8509C51.3298 19.053 50.7879 19.1541 50.1714 19.1541C49.3163 19.1541 48.6186 18.9718 48.0784 18.6072C47.5381 18.2393 47.2067 17.7173 47.0841 17.0412L48.5209 16.8224C48.6104 17.197 48.7943 17.4804 49.0727 17.6726C49.3511 17.8615 49.714 17.956 50.1615 17.956C50.6487 17.956 51.0381 17.8549 51.3298 17.6527C51.6215 17.4472 51.7673 17.197 51.7673 16.902C51.7673 16.6634 51.6778 16.4628 51.4988 16.3004C51.3232 16.138 51.0531 16.0154 50.6885 15.9325L49.3959 15.6491C48.6833 15.4867 48.1563 15.2282 47.8149 14.8736C47.4768 14.5189 47.3078 14.0698 47.3078 13.5263C47.3078 13.0755 47.4337 12.6811 47.6856 12.343C47.9375 12.005 48.2855 11.7415 48.7297 11.5526C49.1738 11.3603 49.6826 11.2642 50.2559 11.2642C51.0812 11.2642 51.7309 11.4432 52.2048 11.8011C52.6788 12.1558 52.992 12.6314 53.1444 13.228ZM60.8554 19.169C60.3715 19.169 59.934 19.0795 59.5429 18.9006C59.1518 18.7183 58.8419 18.4548 58.6132 18.1101C58.3878 17.7654 58.2751 17.3428 58.2751 16.8423C58.2751 16.4115 58.358 16.0568 58.5237 15.7784C58.6894 15.5 58.9131 15.2796 59.1949 15.1172C59.4766 14.9548 59.7915 14.8321 60.1395 14.7493C60.4875 14.6664 60.8421 14.6035 61.2034 14.5604C61.6608 14.5073 62.032 14.4643 62.317 14.4311C62.6021 14.3946 62.8092 14.3366 62.9385 14.2571C63.0677 14.1776 63.1324 14.0483 63.1324 13.8693V13.8345C63.1324 13.4003 63.0097 13.0639 62.7645 12.8253C62.5225 12.5866 62.1613 12.4673 61.6807 12.4673C61.1802 12.4673 60.7858 12.5784 60.4974 12.8004C60.2124 13.0192 60.0152 13.2628 59.9058 13.5312L58.5088 13.2131C58.6745 12.7491 58.9165 12.3745 59.2346 12.0895C59.5561 11.8011 59.9257 11.5923 60.3433 11.4631C60.7609 11.3305 61.2001 11.2642 61.6608 11.2642C61.9657 11.2642 62.2889 11.3007 62.6302 11.3736C62.9749 11.4432 63.2964 11.5724 63.5947 11.7614C63.8963 11.9503 64.1433 12.2204 64.3355 12.5717C64.5277 12.9197 64.6238 13.3722 64.6238 13.929V19H63.1721V17.956H63.1125C63.0164 18.1482 62.8722 18.3371 62.68 18.5227C62.4877 18.7083 62.2408 18.8625 61.9392 18.9851C61.6376 19.1077 61.2763 19.169 60.8554 19.169ZM61.1785 17.9759C61.5895 17.9759 61.9408 17.8946 62.2325 17.7322C62.5275 17.5698 62.7512 17.3577 62.9037 17.0959C63.0595 16.8307 63.1373 16.5473 63.1373 16.2457V15.2614C63.0843 15.3144 62.9816 15.3641 62.8291 15.4105C62.68 15.4536 62.5093 15.4917 62.317 15.5249C62.1248 15.5547 61.9375 15.5829 61.7552 15.6094C61.5729 15.6326 61.4205 15.6525 61.2979 15.669C61.0095 15.7055 60.746 15.7668 60.5074 15.853C60.272 15.9392 60.0831 16.0634 59.9406 16.2259C59.8014 16.3849 59.7318 16.5971 59.7318 16.8622C59.7318 17.2301 59.8677 17.5085 60.1395 17.6974C60.4113 17.883 60.7576 17.9759 61.1785 17.9759ZM66.7231 19V8.81818H68.2096V12.6016H68.2991C68.3853 12.4425 68.5096 12.2585 68.672 12.0497C68.8344 11.8409 69.0597 11.6586 69.3481 11.5028C69.6365 11.3438 70.0176 11.2642 70.4916 11.2642C71.108 11.2642 71.6582 11.42 72.1421 11.7315C72.626 12.0431 73.0055 12.4922 73.2806 13.0788C73.559 13.6655 73.6982 14.3714 73.6982 15.1967C73.6982 16.022 73.5607 16.7296 73.2856 17.3196C73.0105 17.9062 72.6327 18.3587 72.1521 18.6768C71.6715 18.9917 71.123 19.1491 70.5065 19.1491C70.0425 19.1491 69.663 19.0713 69.368 18.9155C69.0763 18.7597 68.8476 18.5774 68.6819 18.3686C68.5162 18.1598 68.3886 17.9742 68.2991 17.8118H68.1748V19H66.7231ZM68.1798 15.1818C68.1798 15.7187 68.2577 16.1894 68.4134 16.5938C68.5692 16.9981 68.7946 17.3146 69.0896 17.5433C69.3846 17.7687 69.7458 17.8814 70.1734 17.8814C70.6175 17.8814 70.9887 17.7637 71.287 17.5284C71.5853 17.2898 71.8107 16.9666 71.9632 16.5589C72.1189 16.1513 72.1968 15.6922 72.1968 15.1818C72.1968 14.678 72.1206 14.2256 71.9681 13.8246C71.819 13.4235 71.5936 13.107 71.292 12.875C70.9937 12.643 70.6208 12.527 70.1734 12.527C69.7425 12.527 69.3779 12.638 69.0796 12.8601C68.7847 13.0821 68.5609 13.392 68.4085 13.7898C68.256 14.1875 68.1798 14.6515 68.1798 15.1818ZM78.6586 19.1541C77.9063 19.1541 77.2583 18.9934 76.7148 18.6719C76.1745 18.3471 75.7569 17.8913 75.4619 17.3047C75.1702 16.7147 75.0244 16.0237 75.0244 15.2315C75.0244 14.4493 75.1702 13.7599 75.4619 13.1634C75.7569 12.5668 76.1679 12.1011 76.6949 11.7663C77.2252 11.4316 77.845 11.2642 78.5542 11.2642C78.9851 11.2642 79.4027 11.3355 79.8071 11.478C80.2114 11.6205 80.5744 11.8442 80.8959 12.1491C81.2174 12.4541 81.4709 12.8501 81.6565 13.3374C81.8421 13.8213 81.9349 14.4096 81.9349 15.1023V15.6293H75.8646V14.5156H80.4782C80.4782 14.1245 80.3987 13.7782 80.2396 13.4766C80.0805 13.1716 79.8568 12.9313 79.5684 12.7557C79.2834 12.58 78.9487 12.4922 78.5642 12.4922C78.1466 12.4922 77.782 12.5949 77.4704 12.8004C77.1622 13.0026 76.9236 13.2678 76.7545 13.5959C76.5888 13.9207 76.5059 14.2737 76.5059 14.6548V15.5249C76.5059 16.0353 76.5954 16.4695 76.7744 16.8274C76.9567 17.1854 77.2103 17.4588 77.5351 17.6477C77.8599 17.8333 78.2394 17.9261 78.6736 17.9261C78.9553 17.9261 79.2122 17.8864 79.4442 17.8068C79.6762 17.724 79.8767 17.6013 80.0457 17.4389C80.2148 17.2765 80.344 17.076 80.4335 16.8374L81.8405 17.0909C81.7278 17.5052 81.5256 17.8681 81.2339 18.1797C80.9456 18.4879 80.5827 18.7282 80.1452 18.9006C79.711 19.0696 79.2155 19.1541 78.6586 19.1541ZM83.5843 19V11.3636H85.021V12.5767H85.1006C85.2398 12.1657 85.4851 11.8426 85.8364 11.6072C86.191 11.3686 86.5921 11.2493 87.0395 11.2493C87.1323 11.2493 87.2417 11.2526 87.3676 11.2592C87.4969 11.2659 87.598 11.2741 87.6709 11.2841V12.706C87.6112 12.6894 87.5052 12.6712 87.3527 12.6513C87.2003 12.6281 87.0478 12.6165 86.8953 12.6165C86.544 12.6165 86.2308 12.6911 85.9557 12.8402C85.6839 12.986 85.4685 13.1899 85.3094 13.4517C85.1503 13.7102 85.0708 14.0052 85.0708 14.3366V19H83.5843ZM92.9731 11.3636V12.5568H88.8019V11.3636H92.9731ZM89.9205 9.53409H91.407V16.7578C91.407 17.0462 91.4501 17.2633 91.5363 17.4091C91.6225 17.5516 91.7335 17.6494 91.8694 17.7024C92.0086 17.7521 92.1594 17.777 92.3218 17.777C92.4411 17.777 92.5455 17.7687 92.635 17.7521C92.7245 17.7356 92.7941 17.7223 92.8438 17.7124L93.1123 18.9403C93.0261 18.9735 92.9035 19.0066 92.7444 19.0398C92.5853 19.0762 92.3865 19.0961 92.1478 19.0994C91.7567 19.1061 91.3921 19.0365 91.0541 18.8906C90.716 18.7448 90.4426 18.5194 90.2338 18.2145C90.0249 17.9096 89.9205 17.5268 89.9205 17.0661V9.53409ZM96.8398 19.169C96.3559 19.169 95.9184 19.0795 95.5273 18.9006C95.1362 18.7183 94.8263 18.4548 94.5976 18.1101C94.3722 17.7654 94.2595 17.3428 94.2595 16.8423C94.2595 16.4115 94.3424 16.0568 94.5081 15.7784C94.6738 15.5 94.8975 15.2796 95.1792 15.1172C95.461 14.9548 95.7758 14.8321 96.1238 14.7493C96.4719 14.6664 96.8265 14.6035 97.1878 14.5604C97.6452 14.5073 98.0164 14.4643 98.3014 14.4311C98.5864 14.3946 98.7936 14.3366 98.9229 14.2571C99.0521 14.1776 99.1167 14.0483 99.1167 13.8693V13.8345C99.1167 13.4003 98.9941 13.0639 98.7488 12.8253C98.5069 12.5866 98.1456 12.4673 97.665 12.4673C97.1646 12.4673 96.7702 12.5784 96.4818 12.8004C96.1968 13.0192 95.9996 13.2628 95.8902 13.5312L94.4932 13.2131C94.6589 12.7491 94.9008 12.3745 95.219 12.0895C95.5405 11.8011 95.9101 11.5923 96.3277 11.4631C96.7453 11.3305 97.1845 11.2642 97.6452 11.2642C97.9501 11.2642 98.2732 11.3007 98.6146 11.3736C98.9593 11.4432 99.2808 11.5724 99.5791 11.7614C99.8807 11.9503 100.128 12.2204 100.32 12.5717C100.512 12.9197 100.608 13.3722 100.608 13.929V19H99.1565V17.956H99.0969C99.0007 18.1482 98.8566 18.3371 98.6643 18.5227C98.4721 18.7083 98.2252 18.8625 97.9236 18.9851C97.622 19.1077 97.2607 19.169 96.8398 19.169ZM97.1629 17.9759C97.5739 17.9759 97.9252 17.8946 98.2169 17.7322C98.5119 17.5698 98.7356 17.3577 98.8881 17.0959C99.0438 16.8307 99.1217 16.5473 99.1217 16.2457V15.2614C99.0687 15.3144 98.9659 15.3641 98.8135 15.4105C98.6643 15.4536 98.4936 15.4917 98.3014 15.5249C98.1092 15.5547 97.9219 15.5829 97.7396 15.6094C97.5573 15.6326 97.4049 15.6525 97.2822 15.669C96.9939 15.7055 96.7304 15.7668 96.4917 15.853C96.2564 15.9392 96.0675 16.0634 95.925 16.2259C95.7858 16.3849 95.7162 16.5971 95.7162 16.8622C95.7162 17.2301 95.8521 17.5085 96.1238 17.6974C96.3956 17.883 96.742 17.9759 97.1629 17.9759ZM108.31 13.228L106.963 13.4666C106.907 13.2943 106.817 13.1302 106.695 12.9744C106.575 12.8187 106.413 12.6911 106.207 12.5916C106.002 12.4922 105.745 12.4425 105.437 12.4425C105.016 12.4425 104.665 12.5369 104.383 12.7259C104.101 12.9115 103.96 13.1518 103.96 13.4467C103.96 13.7019 104.055 13.9074 104.244 14.0632C104.433 14.219 104.738 14.3466 105.158 14.446L106.372 14.7244C107.074 14.8868 107.598 15.1371 107.943 15.4751C108.287 15.8132 108.46 16.2524 108.46 16.7926C108.46 17.25 108.327 17.6577 108.062 18.0156C107.8 18.3703 107.434 18.6487 106.963 18.8509C106.496 19.053 105.954 19.1541 105.337 19.1541C104.482 19.1541 103.785 18.9718 103.244 18.6072C102.704 18.2393 102.373 17.7173 102.25 17.0412L103.687 16.8224C103.776 17.197 103.96 17.4804 104.239 17.6726C104.517 17.8615 104.88 17.956 105.328 17.956C105.815 17.956 106.204 17.8549 106.496 17.6527C106.787 17.4472 106.933 17.197 106.933 16.902C106.933 16.6634 106.844 16.4628 106.665 16.3004C106.489 16.138 106.219 16.0154 105.854 15.9325L104.562 15.6491C103.849 15.4867 103.322 15.2282 102.981 14.8736C102.643 14.5189 102.474 14.0698 102.474 13.5263C102.474 13.0755 102.6 12.6811 102.852 12.343C103.104 12.005 103.452 11.7415 103.896 11.5526C104.34 11.3603 104.849 11.2642 105.422 11.2642C106.247 11.2642 106.897 11.4432 107.371 11.8011C107.845 12.1558 108.158 12.6314 108.31 13.228ZM111.968 8.81818L111.839 16.0717H110.462L110.333 8.81818H111.968ZM111.153 19.0945C110.878 19.0945 110.643 18.9983 110.447 18.8061C110.251 18.6106 110.155 18.3752 110.159 18.1001C110.155 17.8284 110.251 17.5964 110.447 17.4041C110.643 17.2086 110.878 17.1108 111.153 17.1108C111.421 17.1108 111.653 17.2086 111.849 17.4041C112.045 17.5964 112.144 17.8284 112.147 18.1001C112.144 18.2824 112.096 18.4498 112.003 18.6023C111.914 18.7514 111.794 18.8707 111.645 18.9602C111.496 19.0497 111.332 19.0945 111.153 19.0945Z" fill="#8E2424"/>
</svg>
